<svg width="149" height="94" viewBox="0 0 149 94" fill="none" xmlns="http://www.w3.org/2000/svg">
<path d="M17.72 92.48C14.52 92.48 12.12 92 10.52 91.04C8.92 90.08 7.88 88.76 7.4 87.08C6.92 85.32 6.68 82.96 6.68 80L6.8 72.56L7.4 58.4L7.76 47.84V30.32C3.92 30.32 1.72 29.68 1.16 28.4C0.92 27.76 0.8 27.08 0.8 26.36C0.8 25.56 0.84 24.8 0.92 24.08C1.08 23.36 1.16 22.68 1.16 22.04C2.6 22.12 4.8 22.16 7.76 22.16L7.88 21.68L8 17.12V11.96C7.92 10.04 8.04 8.75999 8.36 8.11999C8.76 7.4 9.32 7.04 10.04 7.04C10.44 7.04 10.76 7.08 11 7.16H11.24C11.4 7.16 11.68 7.16 12.08 7.16C12.48 7.08 12.84 7.12 13.16 7.28C14.76 7.52 15.56 8.2 15.56 9.32C15.56 9.56 15.48 10.48 15.32 12.08C14.92 14.88 14.64 18.24 14.48 22.16H26C26.64 22.16 27.16 22.72 27.56 23.84C27.96 24.88 28.16 26 28.16 27.2C28.16 28.8 27.8 29.72 27.08 29.96C25.56 30.44 23.72 30.68 21.56 30.68C19.64 30.68 17.24 30.52 14.36 30.2V58.64L14.24 63.44C14 66.56 13.88 69.8 13.88 73.16V75.56C13.88 78.12 14.44 80.04 15.56 81.32C16.68 82.52 18.16 83.12 20 83.12C21.76 83.12 23.28 83.08 24.56 83C25.84 82.84 26.76 82.76 27.32 82.76C28.2 82.76 28.64 84.32 28.64 87.44L29.12 89.36C29.36 89.92 29.32 90.24 29 90.32C26.44 91.28 24.52 91.88 23.24 92.12C22.04 92.36 20.2 92.48 17.72 92.48Z" fill="#EEE"/>
<path d="M68.4153 93.44C59.5353 93.44 52.7353 90.04 48.0153 83.24C43.2953 76.36 40.9353 67.4 40.9353 56.36C40.9353 49.4 42.0553 43.24 44.2953 37.88C46.5353 32.52 49.6553 28.36 53.6553 25.4C57.7353 22.44 62.4153 20.96 67.6953 20.96C72.8153 20.96 76.9753 21.88 80.1753 23.72C83.3753 25.56 85.5753 27.32 86.7753 29C86.8553 29.08 87.0553 29.36 87.3753 29.84C87.7753 30.24 87.9753 30.64 87.9753 31.04C87.9753 31.44 87.5753 32 86.7753 32.72C86.0553 33.44 85.0953 34.56 83.8953 36.08C83.0953 37.36 82.4553 38 81.9753 38C81.7353 38 81.4553 37.84 81.1353 37.52C80.8153 37.12 80.5753 36.84 80.4153 36.68C78.9753 35.16 77.1753 33.72 75.0153 32.36C72.9353 31 70.8553 30.32 68.7753 30.32C64.3753 30.32 60.6953 31.04 57.7353 32.48C54.7753 33.84 52.4153 36.6 50.6553 40.76C48.8953 44.84 48.0153 50.72 48.0153 58.4C48.0153 70.32 49.9753 78.08 53.8953 81.68C57.8953 85.2 62.1353 86.96 66.6153 86.96C68.6953 86.96 71.1753 86.08 74.0553 84.32C77.0153 82.48 79.6153 79.48 81.8553 75.32C82.5753 74.44 83.1353 74 83.5353 74C83.9353 74 84.3353 74.16 84.7353 74.48L86.5353 75.92C87.2553 76.56 88.0153 77.4 88.8153 78.44C89.6953 79.48 90.1353 80.24 90.1353 80.72C90.1353 81.04 90.0153 81.4 89.7753 81.8C88.1753 84.36 85.6953 86.96 82.3353 89.6C78.9753 92.16 74.3353 93.44 68.4153 93.44Z" fill="#40B79B"/>
<path d="M119.577 92H101.588L113.307 23.2109C113.893 18.4844 115.319 14.4219 117.584 11.0234C119.889 7.625 122.877 5.02734 126.549 3.23047C130.26 1.39453 134.518 0.515625 139.323 0.59375C140.924 0.632813 142.487 0.769531 144.01 1.00391C145.573 1.23828 147.116 1.53125 148.639 1.88281L147.174 15.5352C146.393 15.3398 145.592 15.1836 144.772 15.0664C143.991 14.9492 143.19 14.8711 142.37 14.832C140.534 14.832 138.854 15.1445 137.33 15.7695C135.807 16.3945 134.518 17.332 133.463 18.582C132.448 19.793 131.764 21.3359 131.412 23.2109L119.577 92ZM142.721 28.6016L140.377 41.4336H101.354L103.639 28.6016H142.721Z" fill="#FD7960"/>
</svg>
