<svg width="99" height="63" viewBox="0 0 99 63" fill="none" xmlns="http://www.w3.org/2000/svg">
<path d="M11.48 62.32C9.34667 62.32 7.74667 62 6.68 61.36C5.61333 60.72 4.92 59.84 4.6 58.72C4.28 57.5467 4.12 55.9733 4.12 54L4.2 49.04L4.6 39.6L4.84 32.56V20.88C2.28 20.88 0.813333 20.4533 0.44 19.6C0.28 19.1733 0.2 18.72 0.2 18.24C0.2 17.7067 0.226667 17.2 0.28 16.72C0.386667 16.24 0.44 15.7867 0.44 15.36C1.4 15.4133 2.86667 15.44 4.84 15.44L4.92 15.12L5 12.08V8.64C4.94667 7.36 5.02667 6.50666 5.24 6.08C5.50667 5.6 5.88 5.36 6.36 5.36C6.62667 5.36 6.84 5.38667 7 5.44H7.16C7.26667 5.44 7.45333 5.44 7.72 5.44C7.98667 5.38667 8.22667 5.41333 8.44 5.52C9.50667 5.68 10.04 6.13333 10.04 6.88C10.04 7.04 9.98667 7.65333 9.88 8.72C9.61333 10.5867 9.42667 12.8267 9.32 15.44H17C17.4267 15.44 17.7733 15.8133 18.04 16.56C18.3067 17.2533 18.44 18 18.44 18.8C18.44 19.8667 18.2 20.48 17.72 20.64C16.7067 20.96 15.48 21.12 14.04 21.12C12.76 21.12 11.16 21.0133 9.24 20.8V39.76L9.16 42.96C9 45.04 8.92 47.2 8.92 49.44V51.04C8.92 52.7467 9.29333 54.0267 10.04 54.88C10.7867 55.68 11.7733 56.08 13 56.08C14.1733 56.08 15.1867 56.0533 16.04 56C16.8933 55.8933 17.5067 55.84 17.88 55.84C18.4667 55.84 18.76 56.88 18.76 58.96L19.08 60.24C19.24 60.6133 19.2133 60.8267 19 60.88C17.2933 61.52 16.0133 61.92 15.16 62.08C14.36 62.24 13.1333 62.32 11.48 62.32Z" fill="white" fill-opacity="0.5"/>
<path d="M45.2769 62.96C39.3569 62.96 34.8235 60.6933 31.6769 56.16C28.5302 51.5733 26.9569 45.6 26.9569 38.24C26.9569 33.6 27.7035 29.4933 29.1969 25.92C30.6902 22.3467 32.7702 19.5733 35.4369 17.6C38.1569 15.6267 41.2769 14.64 44.7969 14.64C48.2102 14.64 50.9835 15.2533 53.1169 16.48C55.2502 17.7067 56.7169 18.88 57.5169 20C57.5702 20.0533 57.7035 20.24 57.9169 20.56C58.1835 20.8267 58.3169 21.0933 58.3169 21.36C58.3169 21.6267 58.0502 22 57.5169 22.48C57.0369 22.96 56.3969 23.7067 55.5969 24.72C55.0635 25.5733 54.6369 26 54.3169 26C54.1569 26 53.9702 25.8933 53.7569 25.68C53.5435 25.4133 53.3835 25.2267 53.2769 25.12C52.3169 24.1067 51.1169 23.1467 49.6769 22.24C48.2902 21.3333 46.9035 20.88 45.5169 20.88C42.5835 20.88 40.1302 21.36 38.1569 22.32C36.1835 23.2267 34.6102 25.0667 33.4369 27.84C32.2635 30.56 31.6769 34.48 31.6769 39.6C31.6769 47.5467 32.9835 52.72 35.5969 55.12C38.2635 57.4667 41.0902 58.64 44.0769 58.64C45.4635 58.64 47.1169 58.0533 49.0369 56.88C51.0102 55.6533 52.7435 53.6533 54.2369 50.88C54.7169 50.2933 55.0902 50 55.3569 50C55.6235 50 55.8902 50.1067 56.1569 50.32L57.3569 51.28C57.8369 51.7067 58.3435 52.2667 58.8769 52.96C59.4635 53.6533 59.7569 54.16 59.7569 54.48C59.7569 54.6933 59.6769 54.9333 59.5169 55.2C58.4502 56.9067 56.7969 58.64 54.5569 60.4C52.3169 62.1067 49.2235 62.96 45.2769 62.96ZM79.3844 62H67.3922L75.2047 16.1406C75.5953 12.9896 76.5458 10.2812 78.0563 8.01562C79.5927 5.75 81.5849 4.01823 84.0328 2.82031C86.5068 1.59635 89.3453 1.01042 92.5484 1.0625C93.6161 1.08854 94.6578 1.17969 95.6734 1.33594C96.7151 1.49219 97.7438 1.6875 98.7594 1.92188L97.7828 11.0234C97.262 10.8932 96.7281 10.7891 96.1813 10.7109C95.6604 10.6328 95.1266 10.5807 94.5797 10.5547C93.3557 10.5547 92.2359 10.763 91.2203 11.1797C90.2047 11.5964 89.3453 12.2214 88.6422 13.0547C87.9651 13.862 87.5094 14.8906 87.275 16.1406L79.3844 62ZM94.8141 19.7344L93.2516 28.2891H67.2359L68.7594 19.7344H94.8141Z" fill="white"/>
</svg>
